<mxfile host="app.diagrams.net" modified="2023-11-17T11:10:28.553Z" agent="Mozilla/5.0 (Windows NT 10.0; Win64; x64) AppleWebKit/537.36 (KHTML, like Gecko) Chrome/119.0.0.0 Safari/537.36" etag="N-Js4XgDD9Z25mlpNCE8" version="22.1.2" type="device">
  <diagram name="Страница — 1" id="FYUcbcnaf--P3dexhryS">
    <mxGraphModel dx="1623" dy="411" grid="1" gridSize="10" guides="1" tooltips="1" connect="1" arrows="1" fold="1" page="1" pageScale="1" pageWidth="827" pageHeight="1169" math="0" shadow="0">
      <root>
        <mxCell id="0" />
        <mxCell id="1" parent="0" />
        <mxCell id="7M7wtbTKfdPqytFjPpsr-1" value="" style="rounded=0;whiteSpace=wrap;html=1;fillColor=#B0B8FF;" parent="1" vertex="1">
          <mxGeometry x="-150" y="30" width="790" height="820" as="geometry" />
        </mxCell>
        <mxCell id="7M7wtbTKfdPqytFjPpsr-3" value="" style="rounded=1;whiteSpace=wrap;html=1;strokeColor=none;" parent="1" vertex="1">
          <mxGeometry x="-65" y="101.92" width="610" height="708.08" as="geometry" />
        </mxCell>
        <mxCell id="7M7wtbTKfdPqytFjPpsr-6" value="" style="shape=cross;whiteSpace=wrap;html=1;rotation=45;size=0;" parent="1" vertex="1">
          <mxGeometry x="489.73" y="130.92" width="23.6" height="22.93" as="geometry" />
        </mxCell>
        <mxCell id="7M7wtbTKfdPqytFjPpsr-9" value="Бронирование столика" style="text;strokeColor=none;fillColor=none;html=1;fontSize=24;fontStyle=1;verticalAlign=middle;align=center;" parent="1" vertex="1">
          <mxGeometry x="185" y="122.38" width="100" height="40" as="geometry" />
        </mxCell>
        <mxCell id="7M7wtbTKfdPqytFjPpsr-15" value="" style="rounded=1;whiteSpace=wrap;html=1;fillColor=#0000FF;fontColor=#FFFFFF;strokeColor=none;" parent="1" vertex="1">
          <mxGeometry x="145" y="730" width="206" height="30" as="geometry" />
        </mxCell>
        <mxCell id="7M7wtbTKfdPqytFjPpsr-16" value="Далее" style="text;html=1;strokeColor=none;fillColor=none;align=center;verticalAlign=middle;whiteSpace=wrap;rounded=0;fontColor=#FFFFFF;" parent="1" vertex="1">
          <mxGeometry x="181" y="730" width="130" height="30" as="geometry" />
        </mxCell>
        <mxCell id="pPM-yKJj4ofIKGPzlXez-7" value="Зал 2" style="text;html=1;strokeColor=#001DBC;fillColor=#0050ef;align=center;verticalAlign=middle;whiteSpace=wrap;rounded=1;fontColor=#ffffff;" parent="1" vertex="1">
          <mxGeometry x="195" y="172.5" width="85" height="45" as="geometry" />
        </mxCell>
        <mxCell id="pPM-yKJj4ofIKGPzlXez-8" value="Зал 3" style="text;html=1;strokeColor=default;fillColor=none;align=center;verticalAlign=middle;whiteSpace=wrap;rounded=1;" parent="1" vertex="1">
          <mxGeometry x="300" y="180" width="60" height="30" as="geometry" />
        </mxCell>
        <mxCell id="pPM-yKJj4ofIKGPzlXez-9" value="Зал 1" style="text;html=1;strokeColor=default;fillColor=none;align=center;verticalAlign=middle;whiteSpace=wrap;rounded=1;" parent="1" vertex="1">
          <mxGeometry x="110" y="180" width="60" height="30" as="geometry" />
        </mxCell>
        <mxCell id="pPM-yKJj4ofIKGPzlXez-10" value="" style="rounded=0;whiteSpace=wrap;html=1;" parent="1" vertex="1">
          <mxGeometry x="-20" y="230" width="510" height="300" as="geometry" />
        </mxCell>
        <mxCell id="pPM-yKJj4ofIKGPzlXez-13" value="" style="rounded=0;whiteSpace=wrap;html=1;fillColor=#d5e8d4;strokeColor=#82b366;" parent="1" vertex="1">
          <mxGeometry x="30" y="285" width="120" height="60" as="geometry" />
        </mxCell>
        <mxCell id="pPM-yKJj4ofIKGPzlXez-16" value="" style="rounded=0;whiteSpace=wrap;html=1;" parent="1" vertex="1">
          <mxGeometry x="-10" y="300" width="30" height="30" as="geometry" />
        </mxCell>
        <mxCell id="pPM-yKJj4ofIKGPzlXez-25" value="" style="rounded=0;whiteSpace=wrap;html=1;" parent="1" vertex="1">
          <mxGeometry x="30" y="250" width="30" height="30" as="geometry" />
        </mxCell>
        <mxCell id="pPM-yKJj4ofIKGPzlXez-27" value="" style="rounded=0;whiteSpace=wrap;html=1;" parent="1" vertex="1">
          <mxGeometry x="120" y="250" width="30" height="30" as="geometry" />
        </mxCell>
        <mxCell id="pPM-yKJj4ofIKGPzlXez-28" value="" style="rounded=0;whiteSpace=wrap;html=1;" parent="1" vertex="1">
          <mxGeometry x="75" y="250" width="30" height="30" as="geometry" />
        </mxCell>
        <mxCell id="pPM-yKJj4ofIKGPzlXez-29" value="" style="rounded=0;whiteSpace=wrap;html=1;" parent="1" vertex="1">
          <mxGeometry x="75" y="350" width="30" height="30" as="geometry" />
        </mxCell>
        <mxCell id="pPM-yKJj4ofIKGPzlXez-30" value="" style="rounded=0;whiteSpace=wrap;html=1;" parent="1" vertex="1">
          <mxGeometry x="30" y="350" width="30" height="30" as="geometry" />
        </mxCell>
        <mxCell id="pPM-yKJj4ofIKGPzlXez-31" value="" style="rounded=0;whiteSpace=wrap;html=1;" parent="1" vertex="1">
          <mxGeometry x="120" y="350" width="30" height="30" as="geometry" />
        </mxCell>
        <mxCell id="pPM-yKJj4ofIKGPzlXez-32" value="" style="rounded=0;whiteSpace=wrap;html=1;" parent="1" vertex="1">
          <mxGeometry x="157" y="300" width="30" height="30" as="geometry" />
        </mxCell>
        <mxCell id="pPM-yKJj4ofIKGPzlXez-33" value="1" style="text;html=1;strokeColor=none;fillColor=none;align=center;verticalAlign=middle;whiteSpace=wrap;rounded=0;" parent="1" vertex="1">
          <mxGeometry x="60" y="295" width="60" height="30" as="geometry" />
        </mxCell>
        <mxCell id="pPM-yKJj4ofIKGPzlXez-34" value="" style="rounded=0;whiteSpace=wrap;html=1;fillColor=#d5e8d4;strokeColor=#82b366;" parent="1" vertex="1">
          <mxGeometry x="30" y="435" width="60" height="60" as="geometry" />
        </mxCell>
        <mxCell id="pPM-yKJj4ofIKGPzlXez-35" value="" style="rounded=0;whiteSpace=wrap;html=1;" parent="1" vertex="1">
          <mxGeometry x="100" y="450" width="30" height="30" as="geometry" />
        </mxCell>
        <mxCell id="pPM-yKJj4ofIKGPzlXez-36" value="" style="rounded=0;whiteSpace=wrap;html=1;" parent="1" vertex="1">
          <mxGeometry x="-10" y="450" width="30" height="30" as="geometry" />
        </mxCell>
        <mxCell id="pPM-yKJj4ofIKGPzlXez-43" value="" style="rounded=0;whiteSpace=wrap;html=1;fillColor=#ffe6cc;strokeColor=#d79b00;" parent="1" vertex="1">
          <mxGeometry x="200" y="435" width="60" height="60" as="geometry" />
        </mxCell>
        <mxCell id="pPM-yKJj4ofIKGPzlXez-44" value="" style="rounded=0;whiteSpace=wrap;html=1;" parent="1" vertex="1">
          <mxGeometry x="265" y="450" width="30" height="30" as="geometry" />
        </mxCell>
        <mxCell id="pPM-yKJj4ofIKGPzlXez-45" value="" style="rounded=0;whiteSpace=wrap;html=1;" parent="1" vertex="1">
          <mxGeometry x="165" y="450" width="30" height="30" as="geometry" />
        </mxCell>
        <mxCell id="pPM-yKJj4ofIKGPzlXez-46" value="5" style="rounded=0;whiteSpace=wrap;html=1;fillColor=#0050ef;strokeColor=#001DBC;fontColor=#ffffff;" parent="1" vertex="1">
          <mxGeometry x="370" y="435" width="60" height="60" as="geometry" />
        </mxCell>
        <mxCell id="pPM-yKJj4ofIKGPzlXez-47" value="" style="rounded=0;whiteSpace=wrap;html=1;" parent="1" vertex="1">
          <mxGeometry x="440" y="450" width="30" height="30" as="geometry" />
        </mxCell>
        <mxCell id="pPM-yKJj4ofIKGPzlXez-48" value="" style="rounded=0;whiteSpace=wrap;html=1;" parent="1" vertex="1">
          <mxGeometry x="330" y="450" width="30" height="30" as="geometry" />
        </mxCell>
        <mxCell id="pPM-yKJj4ofIKGPzlXez-49" value="3" style="text;html=1;strokeColor=none;fillColor=none;align=center;verticalAlign=middle;whiteSpace=wrap;rounded=0;" parent="1" vertex="1">
          <mxGeometry x="30" y="450" width="60" height="30" as="geometry" />
        </mxCell>
        <mxCell id="pPM-yKJj4ofIKGPzlXez-50" value="4" style="text;html=1;strokeColor=none;fillColor=none;align=center;verticalAlign=middle;whiteSpace=wrap;rounded=0;" parent="1" vertex="1">
          <mxGeometry x="200" y="450" width="60" height="30" as="geometry" />
        </mxCell>
        <mxCell id="pPM-yKJj4ofIKGPzlXez-51" value="2" style="rounded=0;whiteSpace=wrap;html=1;fillColor=#ffe6cc;strokeColor=#d79b00;" parent="1" vertex="1">
          <mxGeometry x="230" y="285" width="90" height="60" as="geometry" />
        </mxCell>
        <mxCell id="pPM-yKJj4ofIKGPzlXez-52" value="" style="rounded=0;whiteSpace=wrap;html=1;" parent="1" vertex="1">
          <mxGeometry x="230" y="250" width="30" height="30" as="geometry" />
        </mxCell>
        <mxCell id="pPM-yKJj4ofIKGPzlXez-53" value="" style="rounded=0;whiteSpace=wrap;html=1;" parent="1" vertex="1">
          <mxGeometry x="287" y="250" width="30" height="30" as="geometry" />
        </mxCell>
        <mxCell id="pPM-yKJj4ofIKGPzlXez-54" value="" style="rounded=0;whiteSpace=wrap;html=1;" parent="1" vertex="1">
          <mxGeometry x="230" y="350" width="30" height="30" as="geometry" />
        </mxCell>
        <mxCell id="pPM-yKJj4ofIKGPzlXez-55" value="" style="rounded=0;whiteSpace=wrap;html=1;" parent="1" vertex="1">
          <mxGeometry x="287" y="350" width="30" height="30" as="geometry" />
        </mxCell>
        <mxCell id="pPM-yKJj4ofIKGPzlXez-56" value="" style="shape=trapezoid;perimeter=trapezoidPerimeter;whiteSpace=wrap;html=1;fixedSize=1;rotation=-90;" parent="1" vertex="1">
          <mxGeometry x="390" y="270" width="140" height="60" as="geometry" />
        </mxCell>
        <mxCell id="pPM-yKJj4ofIKGPzlXez-57" value="Сцена" style="text;html=1;strokeColor=none;fillColor=none;align=center;verticalAlign=middle;whiteSpace=wrap;rounded=0;" parent="1" vertex="1">
          <mxGeometry x="430" y="285" width="60" height="30" as="geometry" />
        </mxCell>
        <mxCell id="pPM-yKJj4ofIKGPzlXez-58" value="" style="rounded=0;whiteSpace=wrap;html=1;fillColor=#f8cecc;strokeColor=#b85450;" parent="1" vertex="1">
          <mxGeometry x="30" y="555" width="40" height="35" as="geometry" />
        </mxCell>
        <mxCell id="pPM-yKJj4ofIKGPzlXez-59" value="№" style="text;html=1;strokeColor=none;fillColor=none;align=center;verticalAlign=middle;whiteSpace=wrap;rounded=0;" parent="1" vertex="1">
          <mxGeometry x="35" y="557.5" width="30" height="30" as="geometry" />
        </mxCell>
        <mxCell id="pPM-yKJj4ofIKGPzlXez-60" value="Занят" style="text;html=1;strokeColor=none;fillColor=none;align=center;verticalAlign=middle;whiteSpace=wrap;rounded=0;" parent="1" vertex="1">
          <mxGeometry x="70" y="557.5" width="50" height="30" as="geometry" />
        </mxCell>
        <mxCell id="pPM-yKJj4ofIKGPzlXez-61" value="" style="rounded=0;whiteSpace=wrap;html=1;fillColor=#0050ef;strokeColor=#001DBC;fontColor=#ffffff;" parent="1" vertex="1">
          <mxGeometry x="160" y="555" width="40" height="35" as="geometry" />
        </mxCell>
        <mxCell id="pPM-yKJj4ofIKGPzlXez-62" value="№" style="text;html=1;strokeColor=none;fillColor=none;align=center;verticalAlign=middle;whiteSpace=wrap;rounded=0;" parent="1" vertex="1">
          <mxGeometry x="165" y="557.5" width="30" height="30" as="geometry" />
        </mxCell>
        <mxCell id="pPM-yKJj4ofIKGPzlXez-63" value="Выбран" style="text;html=1;strokeColor=none;fillColor=none;align=center;verticalAlign=middle;whiteSpace=wrap;rounded=0;" parent="1" vertex="1">
          <mxGeometry x="200" y="557.5" width="60" height="30" as="geometry" />
        </mxCell>
        <mxCell id="pPM-yKJj4ofIKGPzlXez-64" value="№" style="rounded=0;whiteSpace=wrap;html=1;fillColor=#d5e8d4;strokeColor=#82b366;" parent="1" vertex="1">
          <mxGeometry x="300" y="555" width="40" height="35" as="geometry" />
        </mxCell>
        <mxCell id="pPM-yKJj4ofIKGPzlXez-65" value="Свободен" style="text;html=1;strokeColor=none;fillColor=none;align=center;verticalAlign=middle;whiteSpace=wrap;rounded=0;" parent="1" vertex="1">
          <mxGeometry x="340" y="557.5" width="80" height="30" as="geometry" />
        </mxCell>
        <mxCell id="pPM-yKJj4ofIKGPzlXez-66" value="Выберите дату" style="rounded=1;whiteSpace=wrap;html=1;fillColor=#0050ef;fontColor=#ffffff;strokeColor=#001DBC;" parent="1" vertex="1">
          <mxGeometry x="-20" y="180" width="110" height="30" as="geometry" />
        </mxCell>
        <mxCell id="pPM-yKJj4ofIKGPzlXez-67" value="Выберите время" style="rounded=1;whiteSpace=wrap;html=1;fillColor=#0050ef;fontColor=#ffffff;strokeColor=#001DBC;" parent="1" vertex="1">
          <mxGeometry x="379.73" y="180" width="110" height="30" as="geometry" />
        </mxCell>
        <mxCell id="pPM-yKJj4ofIKGPzlXez-68" value="Количество персон" style="rounded=1;whiteSpace=wrap;html=1;" parent="1" vertex="1">
          <mxGeometry x="145" y="620" width="205" height="30" as="geometry" />
        </mxCell>
        <mxCell id="pPM-yKJj4ofIKGPzlXez-69" value="" style="triangle;whiteSpace=wrap;html=1;fillColor=#000000;rotation=90;" parent="1" vertex="1">
          <mxGeometry x="330" y="630" width="10" height="10" as="geometry" />
        </mxCell>
        <UserObject label="Фото" link="/" id="pPM-yKJj4ofIKGPzlXez-71">
          <mxCell style="text;html=1;strokeColor=none;fillColor=none;whiteSpace=wrap;align=center;verticalAlign=middle;fontColor=#0000EE;fontStyle=4;fontSize=8;" parent="1" vertex="1">
            <mxGeometry x="75" y="325" width="30" height="5" as="geometry" />
          </mxCell>
        </UserObject>
        <UserObject label="Фото" link="/" id="pPM-yKJj4ofIKGPzlXez-73">
          <mxCell style="text;html=1;strokeColor=none;fillColor=none;whiteSpace=wrap;align=center;verticalAlign=middle;fontColor=#0000EE;fontStyle=4;fontSize=8;" parent="1" vertex="1">
            <mxGeometry x="260" y="322.5" width="30" height="10" as="geometry" />
          </mxCell>
        </UserObject>
        <UserObject label="Фото" link="/" id="pPM-yKJj4ofIKGPzlXez-74">
          <mxCell style="text;html=1;strokeColor=none;fillColor=none;whiteSpace=wrap;align=center;verticalAlign=middle;fontColor=#0000EE;fontStyle=4;fontSize=8;" parent="1" vertex="1">
            <mxGeometry x="45" y="470" width="30" height="10" as="geometry" />
          </mxCell>
        </UserObject>
        <UserObject label="Фото" link="/" id="pPM-yKJj4ofIKGPzlXez-75">
          <mxCell style="text;html=1;strokeColor=none;fillColor=none;whiteSpace=wrap;align=center;verticalAlign=middle;fontColor=#0000EE;fontStyle=4;fontSize=8;" parent="1" vertex="1">
            <mxGeometry x="215" y="470" width="30" height="10" as="geometry" />
          </mxCell>
        </UserObject>
        <UserObject label="Фото" link="/" id="pPM-yKJj4ofIKGPzlXez-76">
          <mxCell style="text;html=1;strokeColor=none;fillColor=none;whiteSpace=wrap;align=center;verticalAlign=middle;fontColor=#FFFFFF;fontStyle=4;fontSize=8;" parent="1" vertex="1">
            <mxGeometry x="385" y="470" width="30" height="10" as="geometry" />
          </mxCell>
        </UserObject>
        <mxCell id="q1zAfBrUbHzWQc4hW9Xq-1" value="Депозит" style="text;html=1;strokeColor=none;fillColor=none;align=center;verticalAlign=middle;whiteSpace=wrap;rounded=0;fontStyle=1;fontSize=13;" vertex="1" parent="1">
          <mxGeometry x="165" y="680" width="80" height="30" as="geometry" />
        </mxCell>
        <mxCell id="q1zAfBrUbHzWQc4hW9Xq-3" value="3000 руб." style="text;html=1;strokeColor=none;fillColor=none;align=center;verticalAlign=middle;whiteSpace=wrap;rounded=0;fontSize=20;fontStyle=1" vertex="1" parent="1">
          <mxGeometry x="248" y="680" width="103" height="30" as="geometry" />
        </mxCell>
      </root>
    </mxGraphModel>
  </diagram>
</mxfile>
